<svg t="1620097812104" class="icon" viewBox="0 0 1024 1024" version="1.1" xmlns="http://www.w3.org/2000/svg" p-id="15596" width="200" height="200"><path d="M784 955.67872h-281.6c-86.4 0-155.20256-70.4-155.20256-155.20256v-46.40256c0-86.4 70.4-155.20256 155.20256-155.20256h281.6c86.4 0 155.20256 70.4 155.20256 155.20256v46.40256c0 84.80256-70.4 155.20256-155.20256 155.20256z" fill="#9999FF" p-id="15597"></path><path d="M267.20256 477.28128c-100.80256 0-182.4-81.60256-182.4-182.4S166.4 114.07872 267.20256 114.07872s182.4 81.60256 182.4 182.4-81.60256 180.80256-182.4 180.80256z m0-320c-75.20256 0-137.6 62.40256-137.6 137.6S192 432.48128 267.20256 432.48128s137.6-62.40256 137.6-137.6-62.40256-137.6-137.6-137.6z m464 316.8h-128a118.13376 118.13376 0 0 1-118.4-118.4v-128a118.13376 118.13376 0 0 1 118.4-118.4h128a118.13376 118.13376 0 0 1 118.4 118.4v128a118.13376 118.13376 0 0 1-118.4 118.4z m-128-320c-40.00256 0-73.6 33.60256-73.6 73.6v128c0 40.00256 33.60256 73.6 73.6 73.6h128c40.00256 0 73.6-33.60256 73.6-73.6v-128c0-40.00256-33.60256-73.6-73.6-73.6h-128zM331.20256 874.08128h-128a118.13376 118.13376 0 0 1-118.4-118.4v-128a118.13376 118.13376 0 0 1 118.4-118.4h128a118.13376 118.13376 0 0 1 118.4 118.4v128a118.13376 118.13376 0 0 1-118.4 118.4z m-128-320c-40.00256 0-73.6 33.60256-73.6 73.6v128c0 40.00256 33.60256 73.6 73.6 73.6h128c40.00256 0 73.6-33.60256 73.6-73.6v-128c0-40.00256-33.60256-73.6-73.6-73.6h-128z m528 320h-128a118.13376 118.13376 0 0 1-118.4-118.4v-128a118.13376 118.13376 0 0 1 118.4-118.4h128a118.13376 118.13376 0 0 1 118.4 118.4v128a118.13376 118.13376 0 0 1-118.4 118.4z m-128-320c-40.00256 0-73.6 33.60256-73.6 73.6v128c0 40.00256 33.60256 73.6 73.6 73.6h128c40.00256 0 73.6-33.60256 73.6-73.6v-128c0-40.00256-33.60256-73.6-73.6-73.6h-128z" fill="#231A54" p-id="15598"></path><path d="M267.20256 379.67872c-46.40256 0-83.2-38.4-83.2-83.2s38.4-83.2 83.2-83.2 83.2 38.4 83.2 83.2-36.80256 83.2-83.2 83.2z m0-128c-24.00256 0-44.8 19.2-44.8 44.8s19.2 44.8 44.8 44.8 44.8-19.2 44.8-44.8-20.80256-44.8-44.8-44.8z" fill="#231A54" p-id="15599"></path></svg>