<svg t="1620068171469" class="icon" viewBox="0 0 1024 1024" version="1.1" xmlns="http://www.w3.org/2000/svg" p-id="18272" width="200" height="200"><path d="M0 0h853.333333q170.666667 0 170.666667 170.666667v682.666666q0 170.666667-170.666667 170.666667H170.666667q-170.666667 0-170.666667-170.666667V170.666667q0-170.666667 170.666667-170.666667z" fill="#170B1A" p-id="18273"></path><path d="M511.249067 300.6464c0.4096-62.293333 0-124.586667 0.4096-186.88h127.146666a256 256 0 0 0 3.003734 32.426667h-93.866667v505.617066a125.883733 125.883733 0 0 1-15.36 61.8496 104.174933 104.174933 0 0 1-80.657067 51.2 105.5744 105.5744 0 0 1-60.996266-12.8 103.389867 103.389867 0 0 1-35.84-32.017066 104.1408 104.1408 0 0 0 106.222933-3.822934 108.6464 108.6464 0 0 0 50.346667-90.453333c-0.4096-107.963733-0.4096-216.746667-0.4096-325.12z m209.92-35.84a187.2896 187.2896 0 0 0 58.026666 24.302933 176.4352 176.4352 0 0 0 37.102934 3.857067v28.603733a182.408533 182.408533 0 0 1-95.1296-56.866133z" fill="#25F4EE" p-id="18274"></path><path d="M282.180267 423.5264a230.912 230.912 0 0 1 154.385066-32.426667v30.3104a233.301333 233.301333 0 0 0-42.222933 5.12 249.719467 249.719467 0 0 0-94.72 42.222934 231.7312 231.7312 0 0 0-69.563733 87.4496 239.2064 239.2064 0 0 0 7.236266 217.6 180.667733 180.667733 0 0 0 32.017067 43.963733 229.137067 229.137067 0 0 1-66.116267-72.533333 236.6464 236.6464 0 0 1-32.426666-127.146667 242.039467 242.039467 0 0 1 34.542933-116.053333 225.518933 225.518933 0 0 1 76.8-78.506667z" fill="#25F4EE" p-id="18275"></path><path d="M548.317867 146.056533h94.276266a181.111467 181.111467 0 0 0 18.3296 51.6096 160.426667 160.426667 0 0 0 56.32 62.737067 16.384 16.384 0 0 1 3.857067 3.822933 179.780267 179.780267 0 0 0 95.1296 56.763734c0.443733 32.836267 0 66.56 0 99.84a300.373333 300.373333 0 0 1-175.342933-55.466667c0 79.36 0 158.72 0.4096 238.08 0 10.683733 0.443733 20.8896 0 31.982933a257.604267 257.604267 0 0 1-34.133334 110.08 247.3984 247.3984 0 0 1-66.116266 75.093334 215.552 215.552 0 0 1-120.763734 41.403733 261.597867 261.597867 0 0 1-65.706666-5.563733 247.330133 247.330133 0 0 1-84.036267-37.102934l-1.706667-1.706666a203.502933 203.502933 0 0 1-32.017066-43.963734 236.6464 236.6464 0 0 1-29.866667-113.0496 238.933333 238.933333 0 0 1 22.6304-104.5504 231.560533 231.560533 0 0 1 69.5296-87.4496 237.3632 237.3632 0 0 1 94.72-42.222933 335.086933 335.086933 0 0 1 42.257067-5.12c0.4096 12.8 0 25.156267 0.4096 37.546667v64.4096a90.282667 90.282667 0 0 0-49.902934-1.706667 126.293333 126.293333 0 0 0-54.203733 26.453333 100.352 100.352 0 0 0-23.04 29.013334 111.3088 111.3088 0 0 0-11.093333 61.883733 102.4 102.4 0 0 0 24.337066 55.3984 137.4208 137.4208 0 0 0 31.982934 26.897067 103.697067 103.697067 0 0 0 35.84 32.017066 112.64 112.64 0 0 0 61.0304 12.731734 103.662933 103.662933 0 0 0 80.622933-51.2 120.046933 120.046933 0 0 0 15.36-61.8496c1.297067-169.403733 0.853333-338.3296 0.853333-506.88z" fill="#FFFFFF" p-id="18276"></path><path d="M642.696533 146.056533c11.093333 0.443733 22.186667 0 33.6896 0a181.589333 181.589333 0 0 0 32.8704 104.106667c2.56 3.822933 5.5296 7.236267 8.0896 10.6496a156.5696 156.5696 0 0 1-56.32-62.702933 215.3472 215.3472 0 0 1-18.3296-52.053334z m173.226667 175.377067a176.4352 176.4352 0 0 0 37.102933 3.822933v128.4096a302.933333 302.933333 0 0 1-176.64-57.173333v254.737067a232.721067 232.721067 0 0 1-5.5296 57.173333 235.793067 235.793067 0 0 1-93.457066 142.506667 230.877867 230.877867 0 0 1-83.626667 37.546666 234.154667 234.154667 0 0 1-110.08-1.706666 227.84 227.84 0 0 1-111.786667-67.413334 227.566933 227.566933 0 0 0 84.48 37.102934 261.256533 261.256533 0 0 0 65.706667 5.563733 212.343467 212.343467 0 0 0 120.763733-41.3696 243.541333 243.541333 0 0 0 66.116267-75.093333 257.570133 257.570133 0 0 0 34.133333-110.148267q0.648533-15.9744 0-31.982933c-0.4096-79.36-0.4096-158.72-0.4096-238.08a297.3696 297.3696 0 0 0 175.342934 55.466666c-2.116267-32.836267-1.262933-66.56-2.116267-99.396266z" fill="#FE2C55" p-id="18277"></path><path d="M437.009067 420.522667a274.1248 274.1248 0 0 1 37.102933 2.1504v131.857066a102.0928 102.0928 0 0 0-55.466667-2.1504 106.8032 106.8032 0 0 0-75.946666 67.822934 108.407467 108.407467 0 0 0 13.653333 99.908266 120.6272 120.6272 0 0 1-31.982933-26.897066 103.765333 103.765333 0 0 1-24.337067-55.466667 110.728533 110.728533 0 0 1 11.093333-61.883733 94.993067 94.993067 0 0 1 23.04-29.013334 135.2704 135.2704 0 0 1 54.203734-26.453333 90.555733 90.555733 0 0 1 49.902933 1.706667v-64.853334c-1.262933-11.093333-0.887467-23.8592-1.262933-36.727466z" fill="#FE2C55" p-id="18278"></path></svg>