<svg t="1619709608289" class="icon" viewBox="0 0 1024 1024" version="1.1" xmlns="http://www.w3.org/2000/svg" p-id="2459" data-spm-anchor-id="a313x.7781069.0.i2" width="200" height="200"><path d="M960 800 889.6 0 128 0 64 806.4 64 1024l896 0L960 800 960 800zM825.6 64l64 704L128 768 192 64 825.6 64 825.6 64zM128 960l0-128 768 0 0 128L128 960 128 960z" p-id="2460" fill="#243553" data-spm-anchor-id="a313x.7781069.0.i1" class=""></path><path d="M620.8 396.8C627.2 384 627.2 371.2 627.2 364.8c0-51.2-44.8-89.6-96-89.6C499.2 275.2 467.2 294.4 448 320 441.6 313.6 435.2 313.6 428.8 313.6c-32 0-51.2 19.2-51.2 44.8C332.8 371.2 307.2 409.6 307.2 448c0 51.2 38.4 89.6 89.6 89.6 6.4 0 6.4 0 12.8 0l198.4 0c38.4 0 70.4-32 70.4-70.4C678.4 435.2 652.8 409.6 620.8 396.8zM576 499.2 428.8 499.2c-6.4 0-6.4 0-6.4 0-38.4 0-64-12.8-64-51.2 0-25.6 32-44.8 64-57.6 0-19.2 0-38.4 25.6-44.8 0 0 19.2-6.4 32 6.4C480 339.2 505.6 320 524.8 320c38.4 0 57.6 25.6 57.6 64 0 6.4 0 19.2-6.4 32 25.6 6.4 57.6 25.6 57.6 51.2C627.2 492.8 601.6 499.2 576 499.2z" p-id="2461" fill="#1296db" data-spm-anchor-id="a313x.7781069.0.i0" class="selected"></path><path d="M768 857.6l64 0 0 64-64 0L768 857.6 768 857.6z" p-id="2462" fill="#f4ea2a" data-spm-anchor-id="a313x.7781069.0.i6" class=""></path><path d="M659.2 857.6l64 0 0 64-64 0L659.2 857.6 659.2 857.6z" p-id="2463" fill="#f4ea2a" data-spm-anchor-id="a313x.7781069.0.i7" class=""></path></svg>