<svg t="1619707981679" class="icon" viewBox="0 0 1024 1024" version="1.1" xmlns="http://www.w3.org/2000/svg" p-id="15515" width="200" height="200"><path d="M870.4 102.4c84.83 0 153.6 68.77 153.6 153.6v460.8c0 84.83-68.77 153.6-153.6 153.6h-81.193l92.16 92.16H736.551l-92.158-92.16H383.354l-92.16 92.16H146.382l92.158-92.16H153.6C68.77 870.4 0 801.63 0 716.8V256c0-84.83 68.77-153.6 153.6-153.6h716.8z m0 102.4H153.6c-28.277 0-51.2 22.923-51.2 51.2v460.8c0 28.277 22.923 51.2 51.2 51.2h716.8c28.277 0 51.2-22.923 51.2-51.2V256c0-28.277-22.923-51.2-51.2-51.2z" fill="#1A75FF" p-id="15516"></path><path d="M524.023 321.42l113.612 84.4c31.24 23.207 37.208 66.634 13.332 96.998a70.23 70.23 0 0 1-13.332 12.958l-113.612 84.401c-31.239 23.207-75.918 17.405-99.794-12.958-9.488-12.067-14.629-26.832-14.629-42.02V376.397c0-38.216 31.874-69.197 71.192-69.197 15.625 0 30.816 4.997 43.23 14.22z" fill="#FA9E00" p-id="15517"></path></svg>